<svg width="80" height="80" viewBox="0 0 80 80" fill="none" xmlns="http://www.w3.org/2000/svg">
<g clip-path="url(#clip0_35_1359)">
<path d="M80 40C80 17.9086 62.0914 -3.05176e-05 40 -3.05176e-05C17.9086 -3.05176e-05 0 17.9086 0 40C0 59.9651 14.6274 76.5132 33.75 79.514V51.5625H23.5938V40H33.75V31.1875C33.75 21.1625 39.7217 15.625 48.8586 15.625C53.2349 15.625 57.8125 16.4062 57.8125 16.4062V26.25H52.7686C47.7996 26.25 46.25 29.3333 46.25 32.4966V40H57.3438L55.5703 51.5625H46.25V79.514C65.3726 76.5132 80 59.9651 80 40Z" fill="#1877F2"/>
<path d="M55.5703 51.5625L57.3438 40H46.25V32.4966C46.25 29.3334 47.7996 26.25 52.7686 26.25H57.8125V16.4062C57.8125 16.4062 53.2349 15.625 48.8586 15.625C39.7217 15.625 33.75 21.1625 33.75 31.1875V40H23.5938V51.5625H33.75V79.5141C35.7865 79.8336 37.8738 80 40 80C42.1263 80 44.2135 79.8336 46.25 79.5141V51.5625H55.5703Z" fill="white"/>
</g>
<defs>
<clipPath id="clip0_35_1359">
<rect width="80" height="80" fill="white"/>
</clipPath>
</defs>
</svg>
