<svg version="1.1" id="Layer_1" xmlns="http://www.w3.org/2000/svg" xmlns:xlink="http://www.w3.org/1999/xlink" x="0px" y="0px"
	 width="100%" viewBox="0 0 393 400" enable-background="new 0 0 393 400" xml:space="preserve">
<path fill="#101010" opacity="1.000000" stroke="none" 
	d="
M257.000000,401.000000 
	C171.732666,401.000000 86.465332,401.000000 1.000000,401.000000 
	C1.000000,297.979187 1.000000,194.958252 1.260117,91.148315 
	C2.160757,90.881653 2.908704,91.315010 3.425993,91.939445 
	C14.491373,105.296829 25.528145,118.677910 36.576721,132.049225 
	C41.356068,137.833344 46.149418,143.605881 51.355068,149.888992 
	C52.612312,147.543762 53.609142,146.015396 54.291214,144.357529 
	C58.303768,134.604492 65.639954,130.873657 76.008354,131.144012 
	C90.983643,131.534515 105.976791,131.278397 120.962128,131.234619 
	C137.439072,131.186478 153.915817,131.066299 170.833466,131.036270 
	C184.750977,131.146927 198.227737,131.229980 211.704208,131.195282 
	C212.861984,131.192307 214.017761,130.408249 215.632172,129.981445 
	C224.530396,129.975159 233.053009,129.257202 241.384354,130.210632 
	C247.565445,130.917969 253.965088,132.938248 259.428802,135.913605 
	C267.057251,140.067780 269.948059,148.287643 272.994934,156.408569 
	C274.912384,162.993820 274.419373,168.895889 271.442627,174.700180 
	C258.395294,200.140854 245.357666,225.587128 232.490082,251.118851 
	C229.992065,256.075378 226.474518,258.076691 221.000061,258.021545 
	C203.520752,257.845459 186.038544,257.949371 168.557480,257.968353 
	C167.011642,257.970032 165.466003,258.140686 163.482376,258.259003 
	C164.211182,259.880981 164.631821,260.932953 165.143448,261.938629 
	C174.567322,280.462494 184.049057,298.957245 193.373444,317.531006 
	C194.504272,319.783539 194.167984,322.923187 195.594620,324.849792 
	C200.868240,331.971588 206.514008,338.825012 212.169998,345.655029 
	C225.403564,361.635376 238.754074,377.518890 251.975525,393.509155 
	C253.881851,395.814697 255.336395,398.493774 257.000000,401.000000 
M62.122871,223.194931 
	C69.789978,216.762955 78.726898,215.244888 88.470772,215.691406 
	C97.034569,216.083847 105.638405,215.602600 115.109505,215.717911 
	C143.575592,215.736984 172.041748,215.727783 200.507675,215.802200 
	C205.407349,215.815002 208.664139,213.662979 210.796768,209.340622 
	C213.960159,202.929077 217.276291,196.593063 220.500778,190.211441 
	C225.694687,179.932159 221.901611,173.644348 210.485779,173.641830 
	C165.871567,173.631973 121.257347,173.634705 76.643127,173.649124 
	C74.912270,173.649673 73.181458,173.817963 71.240837,173.919006 
	C73.107384,176.587494 74.656601,178.802307 76.068092,181.759872 
	C77.430740,183.925629 78.357796,185.723801 76.931625,188.678146 
	C71.520683,199.886993 66.604553,211.334717 61.781769,223.009323 
	C61.745632,223.021255 61.679836,223.047485 61.677673,223.042999 
	C61.618904,222.921219 61.566643,222.796280 62.122871,223.194931 
M101.553032,279.908051 
	C108.101334,276.502960 114.649635,273.097870 121.448318,269.562561 
	C120.101433,266.770081 118.792839,264.464935 117.857590,262.017120 
	C116.624191,258.788940 114.596764,257.641907 111.091324,257.860077 
	C105.796249,258.189697 100.458260,258.111725 95.152809,257.879852 
	C92.276466,257.754181 90.703140,258.695984 89.423225,261.302094 
	C84.307098,271.719421 78.956879,282.021667 73.740730,292.390350 
	C73.386620,293.094238 73.423759,293.995026 73.204971,295.217560 
	C82.796715,290.033752 91.837723,285.147583 101.553032,279.908051 
M15.938724,321.525421 
	C15.623292,322.903595 15.307860,324.281799 14.895747,326.082397 
	C22.098028,323.268646 22.350735,322.443542 18.600962,316.188354 
	C17.724232,317.726074 16.861769,319.238800 15.938724,321.525421 
z"/>
<path fill="#000000" opacity="1.000000" stroke="none" 
	d="
M273.028351,155.989777 
	C269.948059,148.287643 267.057251,140.067780 259.428802,135.913605 
	C253.965088,132.938248 247.565445,130.917969 241.384354,130.210632 
	C233.053009,129.257202 224.530396,129.975159 215.553162,129.537796 
	C214.345245,120.095757 213.483810,111.101044 213.044067,102.085762 
	C212.233017,85.458633 211.660172,68.819786 211.014114,52.184818 
	C210.930313,50.026909 211.119858,47.855305 210.980682,45.703117 
	C210.017090,30.800140 208.999954,15.900625 208.000000,1.000000 
	C269.927002,1.000000 331.854034,1.000000 394.000000,1.000000 
	C394.000000,62.687389 394.000000,124.375038 393.693176,186.873322 
	C382.922119,184.789047 372.475586,181.828430 361.990021,179.013107 
	C341.329681,173.465912 320.663483,167.939148 299.967407,162.527435 
	C291.029053,160.190201 282.010468,158.159653 273.028351,155.989777 
z"/>
<path fill="#000000" opacity="1.000000" stroke="none" 
	d="
M394.000000,190.000000 
	C394.000000,260.244293 394.000000,330.488617 394.000000,401.000000 
	C349.312805,401.000000 304.625061,401.000000 259.468994,400.531616 
	C258.669098,393.305847 258.313263,386.549530 258.010315,379.790863 
	C256.996918,357.183624 255.969009,334.576965 255.016052,311.967163 
	C254.590851,301.879303 254.332123,291.784393 253.993454,281.692841 
	C253.971283,281.031830 253.913681,280.371887 253.868912,279.711731 
	C253.136475,268.907867 252.403458,258.104004 251.664780,247.215027 
	C265.973572,241.622742 279.717163,236.332535 293.395935,230.879608 
	C304.336029,226.518478 315.207367,221.983963 326.091064,217.482422 
	C341.778320,210.994080 357.424561,204.405777 373.138336,197.982468 
	C380.028595,195.165955 387.042328,192.651566 394.000000,190.000000 
z"/>
<path fill="#000000" opacity="1.000000" stroke="none" 
	d="
M1.000000,87.000000 
	C1.000000,58.376633 1.000000,29.753262 1.000000,1.000000 
	C68.687508,1.000000 136.375092,1.000000 204.862396,1.259793 
	C203.812073,4.195471 201.940720,6.856904 200.115280,9.549459 
	C179.911835,39.349766 159.735519,69.168503 139.501556,98.948059 
	C135.101318,105.424164 130.501419,111.764626 125.578278,118.096481 
	C112.938896,115.060898 100.696877,112.167603 88.495628,109.111504 
	C76.716385,106.161102 64.994362,102.982613 53.219925,100.012466 
	C35.825947,95.624771 18.407837,91.332756 1.000000,87.000000 
z"/>
<path fill="#00CFEE" opacity="1.000000" stroke="none" 
	d="
M394.000000,189.625000 
	C387.042328,192.651566 380.028595,195.165955 373.138336,197.982468 
	C357.424561,204.405777 341.778320,210.994080 326.091064,217.482422 
	C315.207367,221.983963 304.336029,226.518478 293.395935,230.879608 
	C279.717163,236.332535 265.973572,241.622742 251.664780,247.215027 
	C252.403458,258.104004 253.136475,268.907867 253.868912,279.711731 
	C253.913681,280.371887 253.971283,281.031830 253.993454,281.692841 
	C254.332123,291.784393 254.590851,301.879303 255.016052,311.967163 
	C255.969009,334.576965 256.996918,357.183624 258.010315,379.790863 
	C258.313263,386.549530 258.669098,393.305847 259.000336,400.531616 
	C258.555542,401.000000 258.111115,401.000000 257.333313,401.000000 
	C255.336395,398.493774 253.881851,395.814697 251.975525,393.509155 
	C238.754074,377.518890 225.403564,361.635376 212.169998,345.655029 
	C206.514008,338.825012 200.868240,331.971588 195.594620,324.849792 
	C194.167984,322.923187 194.504272,319.783539 193.373444,317.531006 
	C184.049057,298.957245 174.567322,280.462494 165.143448,261.938629 
	C164.631821,260.932953 164.211182,259.880981 163.482376,258.259003 
	C165.466003,258.140686 167.011642,257.970032 168.557480,257.968353 
	C186.038544,257.949371 203.520752,257.845459 221.000061,258.021545 
	C226.474518,258.076691 229.992065,256.075378 232.490082,251.118851 
	C245.357666,225.587128 258.395294,200.140854 271.442627,174.700180 
	C274.419373,168.895889 274.912384,162.993820 272.994934,156.408569 
	C282.010468,158.159653 291.029053,160.190201 299.967407,162.527435 
	C320.663483,167.939148 341.329681,173.465912 361.990021,179.013107 
	C372.475586,181.828430 382.922119,184.789047 393.693176,187.341980 
	C394.000000,187.750000 394.000000,188.500000 394.000000,189.625000 
z"/>
<path fill="#D9D9D9" opacity="1.000000" stroke="none" 
	d="
M125.993477,118.167564 
	C130.501419,111.764626 135.101318,105.424164 139.501556,98.948059 
	C159.735519,69.168503 179.911835,39.349766 200.115280,9.549459 
	C201.940720,6.856904 203.812073,4.195471 205.331055,1.259793 
	C205.750000,1.000000 206.500000,1.000000 207.625000,1.000000 
	C208.999954,15.900625 210.017090,30.800140 210.980682,45.703117 
	C211.119858,47.855305 210.930313,50.026909 211.014114,52.184818 
	C211.660172,68.819786 212.233017,85.458633 213.044067,102.085762 
	C213.483810,111.101044 214.345245,120.095757 215.095459,129.543396 
	C214.017761,130.408249 212.861984,131.192307 211.704208,131.195282 
	C198.227737,131.229980 184.750977,131.146927 170.515900,130.783707 
	C156.737396,127.136185 143.707718,123.836311 130.709030,120.418640 
	C129.054276,119.983566 127.561363,118.932983 125.993477,118.167564 
z"/>
<path fill="#00D0EF" opacity="1.000000" stroke="none" 
	d="
M125.578278,118.096481 
	C127.561363,118.932983 129.054276,119.983566 130.709030,120.418640 
	C143.707718,123.836311 156.737396,127.136185 170.075073,130.724930 
	C153.915817,131.066299 137.439072,131.186478 120.962128,131.234619 
	C105.976791,131.278397 90.983643,131.534515 76.008354,131.144012 
	C65.639954,130.873657 58.303768,134.604492 54.291214,144.357529 
	C53.609142,146.015396 52.612312,147.543762 51.355068,149.888992 
	C46.149418,143.605881 41.356068,137.833344 36.576721,132.049225 
	C25.528145,118.677910 14.491373,105.296829 3.425993,91.939445 
	C2.908704,91.315010 2.160757,90.881653 1.260117,90.679657 
	C1.000000,89.933327 1.000000,88.866661 1.000000,87.399994 
	C18.407837,91.332756 35.825947,95.624771 53.219925,100.012466 
	C64.994362,102.982613 76.716385,106.161102 88.495628,109.111504 
	C100.696877,112.167603 112.938896,115.060898 125.578278,118.096481 
z"/>
<path fill="#01CFED" opacity="1.000000" stroke="none" 
	d="
M76.205818,181.017136 
	C74.656601,178.802307 73.107384,176.587494 71.240837,173.919006 
	C73.181458,173.817963 74.912270,173.649673 76.643127,173.649124 
	C121.257347,173.634705 165.871567,173.631973 210.485779,173.641830 
	C221.901611,173.644348 225.694687,179.932159 220.500778,190.211441 
	C217.276291,196.593063 213.960159,202.929077 210.796768,209.340622 
	C208.664139,213.662979 205.407349,215.815002 200.507675,215.802200 
	C172.041748,215.727783 143.575592,215.736984 114.463013,215.366730 
	C102.440231,204.202545 91.082893,193.369400 79.650108,182.616440 
	C78.774857,181.793243 77.366417,181.536942 76.205818,181.017136 
z"/>
<path fill="#D4D5D6" opacity="1.000000" stroke="none" 
	d="
M76.136955,181.388504 
	C77.366417,181.536942 78.774857,181.793243 79.650108,182.616440 
	C91.082893,193.369400 102.440231,204.202545 114.020538,215.261383 
	C105.638405,215.602600 97.034569,216.083847 88.470772,215.691406 
	C78.726898,215.244888 69.789978,216.762955 61.841019,222.951233 
	C61.559170,222.707520 61.503395,222.693115 61.503395,222.693115 
	C66.604553,211.334717 71.520683,199.886993 76.931625,188.678146 
	C78.357796,185.723801 77.430740,183.925629 76.136955,181.388504 
z"/>
<path fill="#D6D6D6" opacity="1.000000" stroke="none" 
	d="
M101.215881,280.084717 
	C91.837723,285.147583 82.796715,290.033752 73.204971,295.217560 
	C73.423759,293.995026 73.386620,293.094238 73.740730,292.390350 
	C78.956879,282.021667 84.307098,271.719421 89.423225,261.302094 
	C90.703140,258.695984 92.276466,257.754181 95.152809,257.879852 
	C100.458260,258.111725 105.796249,258.189697 111.091324,257.860077 
	C114.596764,257.641907 116.624191,258.788940 117.857590,262.017120 
	C118.792839,264.464935 120.101433,266.770081 121.448318,269.562561 
	C114.649635,273.097870 108.101334,276.502960 101.215881,280.084717 
z"/>
<path fill="#D5D5D5" opacity="1.000000" stroke="none" 
	d="
M15.969015,321.138458 
	C16.861769,319.238800 17.724232,317.726074 18.600962,316.188354 
	C22.350735,322.443542 22.098028,323.268646 14.895747,326.082397 
	C15.307860,324.281799 15.623292,322.903595 15.969015,321.138458 
z"/>
<path fill="#D4D5D6" opacity="1.000000" stroke="none" 
	d="
M61.536232,222.689697 
	C61.566643,222.796280 61.618904,222.921219 61.677673,223.042999 
	C61.679836,223.047485 61.745632,223.021255 61.642582,222.851227 
	C61.503395,222.693115 61.559170,222.707520 61.536232,222.689697 
z"/>
</svg>